<?xml version="1.0" encoding="utf-8"?>
<!-- Generator: Adobe Illustrator 22.1.0, SVG Export Plug-In . SVG Version: 6.00 Build 0)  -->
<svg version="1.1" id="Layer_1" xmlns="http://www.w3.org/2000/svg" xmlns:xlink="http://www.w3.org/1999/xlink" x="0px" y="0px"
	 viewBox="0 0 277.7 177.3" style="enable-background:new 0 0 277.7 177.3;" xml:space="preserve">
<style type="text/css">
	.st0{fill:#60B325;}
	.st1{fill:#567FDB;}
	.st2{fill:#FFFFFF;}
	.st3{fill:#8EDD4A;}
	.st4{fill:#8DB1FF;}
</style>
<g>
	<path d="M57.1,78.2v16.1c-4.8-3.4-10.5-6.2-19-6.2c-10.6,0-19.5,8.4-19.5,19.7c0,11.3,8.1,19.6,19.5,19.6c8.6,0,14.2-2.6,19-6.1v16
		c-3.9,3.3-10.2,7-20.6,7c-21,0-36.6-17-36.6-36.6c0-19.6,15.6-37,36.6-37C46.9,70.9,53.3,75,57.1,78.2z"/>
	<path d="M71.3,142.4V43h17.5v99.4H71.3z"/>
	<path d="M132.6,141.2c0,18.9-9.1,30.2-25,36l-7.7-15.3c9.7-4.4,15.2-10.2,15.2-20V87.6h-13.8V72.7h31.3V141.2z"/>
	<path d="M176.4,67.6v5.1h18.1v14.6h-18.1v55.1h-17.5V87.3h-10.6V72.7h10.6v-6.2c0-16,11.3-25.5,24.4-25.5c5.9,0,10.3,1.4,13.5,3.6
		v14.6c-2.8-1.7-6.5-2.8-10.5-2.6C180.8,56.7,176.4,59.8,176.4,67.6z"/>
	<path d="M277.7,142.4h-21.9l-17.8-23.7l-17.8,23.7h-21.9l28.7-35.6l-27.7-34.1h20.7l18.1,21.8L256,72.7h20.7L249,106.7L277.7,142.4
		z"/>
</g>
<path class="st0" d="M109.4,47.3c0-7,5.6-12.6,12.6-12.6s12.7,5.6,12.7,12.6S129,60,122,60S109.4,54.2,109.4,47.3z"/>
<path class="st1" d="M109.4,12.6C109.4,5.6,115,0,122,0s12.7,5.6,12.7,12.6S129,25.3,122,25.3S109.4,19.6,109.4,12.6z"/>
</svg>
